<svg version="1.1" id="Ebene_1" xmlns="http://www.w3.org/2000/svg" xmlns:xlink="http://www.w3.org/1999/xlink" x="0px" y="0px"
	 width="50px" height="44px" viewBox="0 0 50 44" style="enable-background:new 0 0 50 44;" xml:space="preserve">
<g>
	<path fill="#ffffff" d="M23.4,19.9c-0.3,0-0.5,0.2-0.5,0.5v5.3c0,0.3,0.2,0.5,0.5,0.5s0.5-0.2,0.5-0.5v-5.3
		C23.9,20.1,23.7,19.9,23.4,19.9z"/>
	<path fill="#ffffff" d="M26.6,19.9c-0.3,0-0.5,0.2-0.5,0.5v5.3c0,0.3,0.2,0.5,0.5,0.5s0.5-0.2,0.5-0.5v-5.3
		C27.1,20.1,26.9,19.9,26.6,19.9z"/>
	<path fill="#ffffff" d="M32.5,16.1h-1.6l0,0h-2.7v-0.5c0-0.9-0.7-1.6-1.6-1.6h-3.2c-0.9,0-1.6,0.7-1.6,1.6v0.5h-2.7l0,0l0,0h-1.6
		c-0.3,0-0.5,0.2-0.5,0.5s0.2,0.5,0.5,0.5h1.1l1,11.4c0.1,0.8,0.8,1.5,1.6,1.5h7.6l0,0c0.8,0,1.5-0.6,1.6-1.5l0.9-11.3h1.2l0,0
		c0.3,0,0.5-0.2,0.5-0.5C33,16.4,32.8,16.1,32.5,16.1z M22.9,15.6c0-0.3,0.2-0.5,0.5-0.5h3.2c0.3,0,0.5,0.2,0.5,0.5v0.5h-4.3v-0.5
		H22.9z M29.4,28.5c0,0.3-0.3,0.5-0.5,0.5h-7.6c-0.3,0-0.5-0.2-0.5-0.5l-0.9-11.3h2.6h5.3l0,0h2.6L29.4,28.5z"/>
</g>
</svg>
