<svg version="1.1" id="Ebene_1" xmlns="http://www.w3.org/2000/svg" xmlns:xlink="http://www.w3.org/1999/xlink" x="0px" y="0px"
	 width="36px" height="34px" viewBox="0 0 36 34" style="enable-background:new 0 0 36 34;" xml:space="preserve">
<g>
	<path fill="#ffffff" d="M16.7,15.3c-0.2,0-0.4,0.2-0.4,0.4V20c0,0.2,0.2,0.4,0.4,0.4c0.2,0,0.4-0.2,0.4-0.4v-4.3
		C17.1,15.5,16.9,15.3,16.7,15.3z"/>
	<path fill="#ffffff" d="M19.3,15.3c-0.2,0-0.4,0.2-0.4,0.4V20c0,0.2,0.2,0.4,0.4,0.4s0.4-0.2,0.4-0.4v-4.3
		C19.7,15.5,19.5,15.3,19.3,15.3z"/>
	<path fill="#ffffff" d="M24.1,12.2h-1.3l0,0h-2.2v-0.4c0-0.7-0.6-1.3-1.3-1.3h-2.6c-0.7,0-1.3,0.6-1.3,1.3v0.4h-2.2l0,0l0,0h-1.3
		c-0.2,0-0.4,0.2-0.4,0.4s0.2,0.4,0.4,0.4h0.9l0.8,9.3c0.1,0.6,0.6,1.2,1.3,1.2h6.2l0,0c0.6,0,1.2-0.5,1.3-1.2l0.7-9.2h1l0,0
		c0.2,0,0.4-0.2,0.4-0.4C24.5,12.4,24.3,12.2,24.1,12.2z M16.3,11.8c0-0.2,0.2-0.4,0.4-0.4h2.6c0.2,0,0.4,0.2,0.4,0.4v0.4h-3.5
		L16.3,11.8L16.3,11.8z M21.6,22.3c0,0.2-0.2,0.4-0.4,0.4H15c-0.2,0-0.4-0.2-0.4-0.4l-0.7-9.2H16h4.3l0,0h2.1L21.6,22.3z"/>
</g>
</svg>
