<svg version="1.1" id="Ebene_1" xmlns="https://www.w3.org/2000/svg" xmlns:xlink="https://www.w3.org/1999/xlink" x="0px" y="0px"
	 width="36px" height="34px" viewBox="0 0 36 34" style="enable-background:new 0 0 36 34;" xml:space="preserve">
<g>
	<g id="Shape_1007">
		<path fill="#ffffff" d="M18,18.4c-0.3,0-0.5-0.2-0.5-0.5v-7.4c0-0.3,0.2-0.5,0.5-0.5s0.5,0.2,0.5,0.5v7.4
			C18.5,18.1,18.3,18.4,18,18.4z"/>
	</g>
	<g id="Shape_1008">
		<path fill="#ffffff" d="M18,24c-0.3,0-0.5-0.2-0.5-0.5v-2.2c0-0.3,0.2-0.5,0.5-0.5s0.5,0.2,0.5,0.5v2.2C18.5,23.8,18.3,24,18,24z"/>
	</g>
	<g id="Oval_169">
		<path fill="#ffffff" d="M18,21.8c-1.2,0-2.2-1-2.2-2.2s1-2.2,2.2-2.2c1.2,0,2.2,1,2.2,2.2S19.2,21.8,18,21.8z M18,18.4
			c-0.7,0-1.2,0.6-1.2,1.2s0.6,1.2,1.2,1.2s1.2-0.6,1.2-1.2S18.7,18.4,18,18.4z"/>
	</g>
	<g id="Shape_1009">
		<path fill="#ffffff" d="M13.2,24c-0.3,0-0.5-0.2-0.5-0.5V17c0-0.3,0.2-0.5,0.5-0.5s0.5,0.2,0.5,0.5v6.5C13.7,23.8,13.5,24,13.2,24z"
			/>
	</g>
	<g id="Shape_1010">
		<path fill="#ffffff" d="M13.2,14c-0.3,0-0.5-0.2-0.5-0.5v-3c0-0.3,0.2-0.5,0.5-0.5s0.5,0.2,0.5,0.5v3C13.7,13.8,13.5,14,13.2,14z"/>
	</g>
	<g id="Oval_170">
		<path fill="#ffffff" d="M13.2,17.5c-1.2,0-2.2-1-2.2-2.2s1-2.2,2.2-2.2s2.2,1,2.2,2.2S14.5,17.5,13.2,17.5z M13.2,14
			c-0.7,0-1.2,0.6-1.2,1.2s0.6,1.2,1.2,1.2s1.2-0.6,1.2-1.2S13.9,14,13.2,14z"/>
	</g>
	<g id="Shape_1011">
		<path fill="#ffffff" d="M22.8,24c-0.3,0-0.5-0.2-0.5-0.5V17c0-0.3,0.2-0.5,0.5-0.5s0.5,0.2,0.5,0.5v6.5C23.3,23.8,23,24,22.8,24z"/>
	</g>
	<g id="Shape_1012">
		<path fill="#ffffff" d="M22.8,14c-0.3,0-0.5-0.2-0.5-0.5v-3c0-0.3,0.2-0.5,0.5-0.5s0.5,0.2,0.5,0.5v3C23.3,13.8,23,14,22.8,14z"/>
	</g>
	<g id="Oval_171">
		<path fill="#ffffff" d="M22.8,17.5c-1.2,0-2.2-1-2.2-2.2s1-2.2,2.2-2.2s2.2,1,2.2,2.2S24,17.5,22.8,17.5z M22.8,14
			c-0.7,0-1.2,0.6-1.2,1.2s0.6,1.2,1.2,1.2s1.2-0.6,1.2-1.2S23.4,14,22.8,14z"/>
	</g>
</g>
</svg>
