<svg version="1.1" id="Ebene_1" xmlns="https://www.w3.org/2000/svg" xmlns:xlink="https://www.w3.org/1999/xlink" x="0px" y="0px"
	 width="36px" height="34px" viewBox="0 0 36 34" style="enable-background:new 0 0 36 34;" xml:space="preserve">
<path id="Form_1" fill="#ffffff" d="M11.8,23.5c-0.2,0-0.3-0.2-0.3-0.3c0,0,0-0.1,0-0.1l0.8-3.6c0-0.1,0-0.1,0.1-0.2l8.4-8.4
	c0.6-0.6,1.5-0.6,2.1,0l1.2,1.2c0.6,0.6,0.6,1.5,0,2.1l-8.4,8.4c0,0-0.1,0.1-0.2,0.1L11.8,23.5C11.9,23.5,11.9,23.5,11.8,23.5z
	 M13,19.7l-0.7,3l2.9-0.7l8.3-8.3c0.3-0.3,0.3-0.8,0-1.1l-1.2-1.2c-0.3-0.3-0.8-0.3-1.1,0L13,19.7z M15.4,22.3L15.4,22.3z
	 M23.2,14.9c-0.1,0-0.2,0-0.2-0.1L20.2,12c-0.1-0.1-0.1-0.4,0-0.5c0.1-0.1,0.4-0.1,0.5,0l2.8,2.8c0.1,0.1,0.1,0.4,0,0.5
	C23.4,14.8,23.3,14.9,23.2,14.9L23.2,14.9z M22.2,15.9c-0.1,0-0.2,0-0.2-0.1l-2.7-2.8c-0.1-0.1-0.1-0.4,0-0.5c0.1-0.1,0.4-0.1,0.5,0
	l0,0l2.7,2.8c0.1,0.1,0.1,0.4,0,0.5C22.4,15.9,22.3,15.9,22.2,15.9z M15.6,22.5c-0.1,0-0.2,0-0.2-0.1l-2.7-2.8
	c-0.1-0.1-0.1-0.4,0-0.5c0.1-0.1,0.4-0.1,0.5,0l2.7,2.8c0.1,0.1,0.1,0.4,0,0.5C15.8,22.5,15.7,22.5,15.6,22.5z"/>
</svg>
