<?xml version="1.0" encoding="utf-8"?>
<!-- Generator: Adobe Illustrator 27.1.1, SVG Export Plug-In . SVG Version: 6.00 Build 0)  -->
<svg version="1.1" id="Ebene_1" xmlns="http://www.w3.org/2000/svg" xmlns:xlink="http://www.w3.org/1999/xlink" x="0px" y="0px"
	 width="40px" height="40px" viewBox="0 0 40 40" style="enable-background:new 0 0 40 40;" xml:space="preserve">
<style type="text/css">
	.blog-export-icon-dark{fill:#ffffff;}
</style>
<g id="Interface-Essential__x2F__Share__x2F__share-1">
	<g id="Group_394">
		<g id="share-1">
			<g id="Shape_1969">
				<path class="blog-export-icon-dark" d="M19.8,21.9c-0.2,0-0.4-0.2-0.4-0.4v-9.9c0-0.2,0.2-0.4,0.4-0.4s0.4,0.2,0.4,0.4v9.9
					C20.2,21.8,20,21.9,19.8,21.9z"/>
			</g>
			<g id="Shape_1970">
				<path class="blog-export-icon-dark" d="M23.3,15.4c-0.1,0-0.2,0-0.3-0.1l-3.2-3.2l-3.2,3.2c-0.1,0.1-0.4,0.1-0.5,0c-0.1-0.1-0.1-0.4,0-0.5l3.4-3.4
					c0.1-0.1,0.4-0.1,0.5,0l3.4,3.4c0.1,0.1,0.1,0.4,0,0.5C23.5,15.4,23.4,15.4,23.3,15.4z"/>
			</g>
			<g id="Shape_1971">
				<path class="blog-export-icon-dark" d="M25.2,29.6H14.5c-0.6,0-1.1-0.5-1.1-1.1v-9.9c0-0.6,0.5-1.1,1.1-1.1h3.1c0.2,0,0.4,0.2,0.4,0.4
					c0,0.2-0.2,0.4-0.4,0.4h-3.1c-0.2,0-0.4,0.2-0.4,0.4v9.9c0,0.2,0.2,0.4,0.4,0.4h10.7c0.2,0,0.4-0.2,0.4-0.4v-9.9
					c0-0.2-0.2-0.4-0.4-0.4h-3.1c-0.2,0-0.4-0.2-0.4-0.4c0-0.2,0.2-0.4,0.4-0.4h3.1c0.6,0,1.1,0.5,1.1,1.1v9.9
					C26.3,29.1,25.8,29.6,25.2,29.6z"/>
			</g>
		</g>
	</g>
</g>
</svg>
