<?xml version="1.0" encoding="utf-8"?>
<!-- Generator: Adobe Illustrator 27.1.1, SVG Export Plug-In . SVG Version: 6.00 Build 0)  -->
<svg version="1.1" id="Ebene_1" xmlns="http://www.w3.org/2000/svg" xmlns:xlink="http://www.w3.org/1999/xlink" x="0px" y="0px"
	 width="32px" height="32px" viewBox="0 0 32 32" style="enable-background:new 0 0 32 32;" xml:space="preserve">
<style type="text/css">
	.st0{fill:#FFFFFF;}
</style>
<g id="Interface-Essential__x2F__Lock_x2F_Unlock__x2F__lock-2">
	<g id="Group_126">
		<g id="lock-2">
			<g id="Shape_766">
				<path class="st0" d="M20.2,24.3h-8.7c-0.9,0-1.7-0.7-1.7-1.7v-6.7c0-0.9,0.7-1.7,1.7-1.7h8.7c0.9,0,1.7,0.7,1.7,1.7v6.7
					C21.9,23.5,21.1,24.3,20.2,24.3z M11.6,14.9c-0.6,0-1,0.4-1,1v6.7c0,0.6,0.4,1,1,1h8.7c0.6,0,1-0.4,1-1v-6.7c0-0.6-0.4-1-1-1
					H11.6z"/>
			</g>
			<g id="Shape_767">
				<path class="st0" d="M19.6,14.9h-7.3c-0.2,0-0.3-0.1-0.3-0.3v-2.3c0-2.2,1.8-4,4-4s4,1.8,4,4v2.3C19.9,14.8,19.7,14.9,19.6,14.9
					z M12.6,14.3h6.7v-2c0-1.8-1.5-3.3-3.3-3.3s-3.3,1.5-3.3,3.3V14.3z"/>
			</g>
			<g id="Oval_94">
				<path class="st0" d="M15.9,20.4c-0.6,0-1.2-0.5-1.2-1.2c0-0.6,0.5-1.2,1.2-1.2s1.2,0.5,1.2,1.2C17.1,19.9,16.5,20.4,15.9,20.4z
					 M15.9,18.8c-0.3,0-0.5,0.2-0.5,0.5c0,0.3,0.2,0.5,0.5,0.5c0.3,0,0.5-0.2,0.5-0.5C16.4,19,16.2,18.8,15.9,18.8z"/>
			</g>
		</g>
	</g>
</g>
</svg>
