<svg version="1.1" id="Ebene_1" xmlns="http://www.w3.org/2000/svg" xmlns:xlink="http://www.w3.org/1999/xlink" x="0px" y="0px"
	 width="25px" height="24px" viewBox="0 0 25 24" style="enable-background:new 0 0 25 24;" xml:space="preserve">
<style type="text/css">
	.ep-masterblock-disconnect-icon-dark {fill:#ffffff;}
</style>
<path class="ep-masterblock-disconnect-icon-dark" d="M17,10.3c0.8-0.8,0.8-2.1,0-2.9c-0.8-0.8-2.1-0.8-2.9,0l-2.1,2.1c-0.8,0.8-0.8,2.1,0,2.9c0.3,0.3,0.3,0.7,0,1
	c-0.3,0.3-0.7,0.3-1,0c-0.6-0.6-1-1.5-1-2.4c0-0.9,0.4-1.8,1-2.4l2.1-2.1c0.9-0.9,2.1-1.2,3.3-0.9c1.2,0.3,2.1,1.2,2.4,2.4
	c0.3,1.2,0,2.4-0.9,3.3l-1,1c-0.3,0.3-0.7,0.3-1,0c-0.3-0.3-0.3-0.7,0-1L17,10.3z M7,17.5c0.6,0.6,1.5,1,2.4,1c0.9,0,1.8-0.4,2.4-1
	l2.1-2.1c0.6-0.6,1-1.5,1-2.4c0-0.9-0.4-1.8-1-2.4c-0.3-0.3-0.7-0.3-1,0c-0.3,0.3-0.3,0.7,0,1c0.4,0.4,0.6,0.9,0.6,1.4
	c0,0.5-0.2,1.1-0.6,1.4l-2.1,2.1c-0.8,0.8-2.1,0.8-2.9,0c-0.8-0.8-0.8-2.1,0-2.9l1-1c0.3-0.3,0.3-0.7,0-1c-0.3-0.3-0.7-0.3-1,0l-1,1
	h0c-0.6,0.6-1,1.5-1,2.4C6,16,6.4,16.9,7,17.5L7,17.5z"/>
</svg>
