<svg version="1.1" id="Ebene_1" xmlns="http://www.w3.org/2000/svg" xmlns:xlink="http://www.w3.org/1999/xlink" x="0px" y="0px"
	 width="70px" height="50px" viewBox="0 0 70 50" style="enable-background:new 0 0 70 50;" xml:space="preserve">
 <style>
      .ep-masterblocks-icon-1 {
        fill: #f24c2e;
      }
      .ep-masterblocks-icon-2 {
        fill: #fff;
        fill-rule: evenodd;
      }
    </style>
<path id="Abgerundetes_Rechteck_1" class="ep-masterblocks-icon-1" d="M4,13h62c2.2,0,4,1.8,4,4v16c0,2.2-1.8,4-4,4H4c-2.2,0-4-1.8-4-4V17
	C0,14.8,1.8,13,4,13z"/>
<path id="MASTER" class="ep-masterblocks-icon-2" d="M20.9,29.3v-8.5h-2l-2.7,6.5l-2.8-6.5h-1.9v8.5H13V23l2.6,6.2h1.2l2.7-6.3v6.3L20.9,29.3L20.9,29.3
	z M28.8,29.3h1.6l-3.3-8.5h-1.7l-3.3,8.5h1.5l0.8-2.1H28L28.8,29.3z M26.2,22.3l1.3,3.5h-2.6L26.2,22.3z M37,22.7
	c-0.4-1.6-2.1-2.5-3.7-2.1c-1.2,0.3-2,1.3-2.2,2.5c0,1.2,0.9,2.3,2.2,2.4l1.2,0.3c0.6,0,1.1,0.5,1.1,1.2c-0.1,0.7-0.7,1.3-1.4,1.2
	c-0.1,0-0.1,0-0.2,0c-1,0.1-1.9-0.7-1.9-1.7l-1.3,0.4c0.2,1.6,1.7,2.8,3.3,2.6c1.5,0.2,2.8-0.9,3-2.4c0-0.1,0-0.1,0-0.2
	c0-1.3-1-2.3-2.3-2.4l-1.2-0.3c-0.6-0.1-1-0.5-1-1.1c0.1-0.7,0.7-1.3,1.5-1.2c0,0,0,0,0,0c0.8-0.1,1.5,0.5,1.7,1.3L37,22.7z
	 M44.7,22.1v-1.4h-7v1.4h2.8v7.1h1.4v-7.1H44.7L44.7,22.1z M51.1,29.3v-1.3h-3.8v-2.3h3.5v-1.3h-3.5v-2.3h3.8v-1.3h-5.3v8.5
	L51.1,29.3L51.1,29.3z M57.1,29.3h1.6l-1.9-3.5c1.1-0.2,2-1.3,1.9-2.4c0-1.4-1.1-2.5-2.4-2.6c-0.1,0-0.2,0-0.2,0h-3.3v8.5h1.5v-3.4
	h1.1L57.1,29.3z M54.3,24.6V22h1.5c0.7-0.1,1.4,0.4,1.5,1.1c0.1,0.7-0.4,1.4-1.1,1.5c-0.1,0-0.2,0-0.3,0H54.3z"/>
</svg>
