<svg version="1.1" id="Ebene_1" xmlns="http://www.w3.org/2000/svg" xmlns:xlink="http://www.w3.org/1999/xlink" x="0px" y="0px"
	 width="46px" height="44px" viewBox="0 0 46 44" style="enable-background:new 0 0 46 44;" xml:space="preserve">
<g>
	<path d="M29.2,16.5l-0.6,13.3c0,0.4-0.4,0.8-0.8,0.8h-9.7c-0.4,0-0.8-0.3-0.8-0.8l-0.6-13.3c0-0.2-0.2-0.4-0.5-0.4
		c-0.2,0-0.4,0.2-0.4,0.5l0.6,13.3c0,0.9,0.8,1.6,1.7,1.6h9.7c0.9,0,1.7-0.7,1.7-1.6l0.6-13.3c0-0.2-0.2-0.5-0.4-0.5
		C29.4,16.1,29.2,16.3,29.2,16.5L29.2,16.5z"/>
	<path d="M22.7,18.4v10.3c0,0.3,0.2,0.5,0.5,0.5c0.2,0,0.5-0.2,0.5-0.5V18.4c0-0.3-0.2-0.5-0.5-0.5C22.9,17.9,22.7,18.1,22.7,18.4
		L22.7,18.4z"/>
	<path d="M19.2,18.4l0.3,10.3c0,0.3,0.2,0.4,0.5,0.4c0.2,0,0.4-0.2,0.4-0.5l-0.3-10.3c0-0.3-0.2-0.4-0.5-0.4
		C19.4,17.9,19.2,18.1,19.2,18.4L19.2,18.4z"/>
	<path d="M25.9,18.4l-0.3,10.3c0,0.2,0.2,0.5,0.4,0.5c0.2,0,0.5-0.2,0.5-0.4l0.3-10.3c0-0.2-0.2-0.5-0.4-0.5
		C26.1,17.9,25.9,18.1,25.9,18.4z"/>
	<path d="M15.5,15.1h15.1c0.3,0,0.5-0.2,0.5-0.5c0-0.3-0.2-0.5-0.5-0.5H15.5c-0.3,0-0.5,0.2-0.5,0.5C15,14.9,15.2,15.1,15.5,15.1z"
		/>
	<path d="M20.4,14.6l0.3-0.8c0.1-0.2,0.4-0.4,0.6-0.4h3.3c0.2,0,0.5,0.2,0.6,0.4l0.3,0.8l0.8-0.3l-0.3-0.8c-0.2-0.6-0.9-1-1.5-1
		h-3.3c-0.6,0-1.2,0.4-1.5,1l-0.3,0.8L20.4,14.6z"/>
</g>
</svg>
